<svg
 xmlns="http://www.w3.org/2000/svg"
 xmlns:xlink="http://www.w3.org/1999/xlink"
 width="180px" height="180px" 
viewBox="0 0 24 24" 
stroke="currentColor" 
stroke-width="1" 
fill="none" 
stroke-linecap="round" 
stroke-linejoin="round"
>
    <!-- <polyline points="21 8 21 21 3 21 3 8"></polyline> -->
    <rect x="1" y="1" width="22" height="22"></rect>                
    <line x1="3" y1="3" x2="6" y2="3"></line>
    <line x1="21" y1="3" x2="21" y2="3"></line>
    <line x1="19" y1="3" x2="19" y2="3"></line>
    <line x1="1" y1="5" x2="13" y2="5" stroke-width=".25"></line>
    <line x1="15" y1="5" x2="23" y2="5" stroke-width=".25"></line>
    <path fill="#194d5e" stroke="transparent"
        d="M 12,15 c 4,-3 5,-2 6,-1 c -1,2 -5,2 -6,0"
    />
    <path 
        stroke-width=".5"
        fill="#228f91"
        stroke="transparent"
        d="
            M 6 14
            C 7,12
              11,12
              12,14
            C 13,16
              17,16
              18,14
            C 18,22
              6,22
              6,14
              z
            "
    />
    <circle cx="12" cy="14" r="6" stroke-width="2"></circle>
</svg>